<svg fill="none" height="1247" viewBox="0 0 1200 1247" width="1200" xmlns="http://www.w3.org/2000/svg" xmlns:xlink="http://www.w3.org/1999/xlink"><clipPath id="clip0_134_1281"><path d="M267.854 736.789H382.277V851.212H267.854Z"/></clipPath><clipPath id="clip1_134_1281"><path d="M45 1067H1155V1147H45Z"/></clipPath><rect fill="#f8f8f8" height="1247" rx="20" width="1200"/><path d="M173.683 152H155.938V99.6364H174.04C179.239 99.6364 183.705 100.685 187.438 102.781 191.188 104.861 194.069 107.852 196.08 111.756 198.092 115.659 199.097 120.33 199.097 125.767 199.097 131.222 198.083 135.909 196.055 139.83 194.043 143.75 191.137 146.759 187.336 148.855 183.552 150.952 179.001 152 173.683 152ZM165.424 143.793H173.222C176.87 143.793 179.913 143.128 182.35 141.798 184.788 140.452 186.62 138.449 187.847 135.79 189.075 133.114 189.688 129.773 189.688 125.767 189.688 121.761 189.075 118.437 187.847 115.795 186.62 113.136 184.805 111.151 182.401 109.838 180.015 108.509 177.049 107.844 173.504 107.844H165.424V143.793ZM207.701 152V112.727H216.675V119.273H217.085C217.8 117.006 219.028 115.259 220.766 114.031 222.522 112.787 224.525 112.165 226.775 112.165 227.286 112.165 227.857 112.19 228.488 112.241 229.136 112.276 229.673 112.335 230.099 112.42V120.935C229.707 120.798 229.085 120.679 228.232 120.577 227.397 120.457 226.587 120.398 225.803 120.398 224.116 120.398 222.599 120.764 221.252 121.497 219.923 122.213 218.874 123.21 218.107 124.489 217.34 125.767 216.957 127.241 216.957 128.912V152H207.701ZM236.248 152V112.727H245.504V152H236.248ZM240.901 107.153C239.435 107.153 238.174 106.668 237.117 105.696 236.06 104.707 235.532 103.523 235.532 102.142 235.532 100.744 236.06 99.5597 237.117 98.5881 238.174 97.5994 239.435 97.1051 240.901 97.1051 242.384 97.1051 243.646 97.5994 244.685 98.5881 245.742 99.5597 246.271 100.744 246.271 102.142 246.271 103.523 245.742 104.707 244.685 105.696 243.646 106.668 242.384 107.153 240.901 107.153ZM290.101 112.727 276.115 152H265.888L251.902 112.727H261.771L270.797 141.901H271.206L280.257 112.727H290.101ZM312.556 152.767C308.619 152.767 305.218 151.949 302.354 150.312 299.508 148.659 297.317 146.324 295.783 143.307 294.249 140.273 293.482 136.702 293.482 132.594 293.482 128.554 294.249 125.009 295.783 121.957 297.335 118.889 299.499 116.503 302.278 114.798 305.056 113.077 308.32 112.216 312.07 112.216 314.491 112.216 316.775 112.608 318.923 113.392 321.087 114.159 322.996 115.352 324.65 116.972 326.32 118.591 327.633 120.653 328.587 123.159 329.542 125.648 330.019 128.614 330.019 132.057V134.895H297.829V128.656H321.147C321.13 126.884 320.746 125.307 319.996 123.926 319.246 122.528 318.198 121.429 316.852 120.628 315.522 119.827 313.971 119.426 312.198 119.426 310.306 119.426 308.644 119.886 307.212 120.807 305.781 121.71 304.664 122.903 303.863 124.386 303.079 125.852 302.678 127.463 302.661 129.219V134.665C302.661 136.949 303.079 138.909 303.914 140.545 304.749 142.165 305.917 143.409 307.417 144.278 308.917 145.131 310.673 145.557 312.684 145.557 314.031 145.557 315.249 145.369 316.34 144.994 317.431 144.602 318.377 144.031 319.178 143.281 319.979 142.531 320.585 141.602 320.994 140.494L329.636 141.466C329.09 143.75 328.05 145.744 326.516 147.449 324.999 149.136 323.056 150.449 320.687 151.386 318.317 152.307 315.607 152.767 312.556 152.767ZM361.653 126.381V134H338.08V126.381H361.653ZM371.798 152V99.6364H381.053V119.222H381.437C381.914 118.267 382.587 117.253 383.457 116.179 384.326 115.088 385.502 114.159 386.985 113.392 388.468 112.608 390.36 112.216 392.661 112.216 395.695 112.216 398.431 112.991 400.869 114.543 403.323 116.077 405.266 118.352 406.698 121.369 408.147 124.369 408.871 128.051 408.871 132.415 408.871 136.727 408.164 140.392 406.749 143.409 405.335 146.426 403.408 148.727 400.971 150.312 398.533 151.898 395.772 152.69 392.687 152.69 390.437 152.69 388.57 152.315 387.087 151.565 385.604 150.815 384.411 149.912 383.508 148.855 382.621 147.781 381.931 146.767 381.437 145.812H380.9V152H371.798ZM380.874 132.364C380.874 134.903 381.232 137.128 381.948 139.037 382.681 140.946 383.729 142.437 385.093 143.511 386.474 144.568 388.144 145.097 390.104 145.097 392.15 145.097 393.863 144.551 395.244 143.46 396.624 142.352 397.664 140.844 398.363 138.935 399.079 137.009 399.437 134.818 399.437 132.364 399.437 129.926 399.087 127.761 398.388 125.869 397.69 123.977 396.65 122.494 395.269 121.42 393.888 120.347 392.167 119.81 390.104 119.81 388.127 119.81 386.448 120.33 385.067 121.369 383.687 122.409 382.638 123.866 381.923 125.741 381.224 127.616 380.874 129.824 380.874 132.364ZM421.157 166.727C419.896 166.727 418.728 166.625 417.654 166.42 416.597 166.233 415.754 166.011 415.123 165.756L417.271 158.545C418.617 158.938 419.819 159.125 420.876 159.108 421.933 159.091 422.862 158.759 423.663 158.111 424.481 157.48 425.171 156.423 425.734 154.94L426.526 152.818 412.285 112.727H422.103L431.154 142.386H431.563L440.64 112.727H450.484L434.759 156.756C434.026 158.835 433.055 160.616 431.844 162.099 430.634 163.599 429.151 164.741 427.396 165.526 425.657 166.327 423.577 166.727 421.157 166.727ZM489.322 152.69C486.237 152.69 483.475 151.898 481.038 150.312 478.6 148.727 476.674 146.426 475.259 143.409 473.844 140.392 473.137 136.727 473.137 132.415 473.137 128.051 473.853 124.369 475.285 121.369 476.734 118.352 478.685 116.077 481.14 114.543 483.594 112.991 486.33 112.216 489.347 112.216 491.648 112.216 493.54 112.608 495.023 113.392 496.506 114.159 497.683 115.088 498.552 116.179 499.421 117.253 500.094 118.267 500.572 119.222H500.955V99.6364H510.237V152H501.134V145.812H500.572C500.094 146.767 499.404 147.781 498.501 148.855 497.597 149.912 496.404 150.815 494.921 151.565 493.438 152.315 491.572 152.69 489.322 152.69ZM491.904 145.097C493.864 145.097 495.535 144.568 496.915 143.511 498.296 142.437 499.344 140.946 500.06 139.037 500.776 137.128 501.134 134.903 501.134 132.364 501.134 129.824 500.776 127.616 500.06 125.741 499.362 123.866 498.322 122.409 496.941 121.369 495.577 120.33 493.898 119.81 491.904 119.81 489.842 119.81 488.12 120.347 486.739 121.42 485.359 122.494 484.319 123.977 483.62 125.869 482.921 127.761 482.572 129.926 482.572 132.364 482.572 134.818 482.921 137.009 483.62 138.935 484.336 140.844 485.384 142.352 486.765 143.46 488.163 144.551 489.876 145.097 491.904 145.097ZM537.23 152.767C533.395 152.767 530.071 151.923 527.259 150.236 524.446 148.548 522.264 146.187 520.713 143.153 519.179 140.119 518.412 136.574 518.412 132.517 518.412 128.46 519.179 124.906 520.713 121.855 522.264 118.804 524.446 116.435 527.259 114.747 530.071 113.06 533.395 112.216 537.23 112.216 541.065 112.216 544.389 113.06 547.202 114.747 550.014 116.435 552.188 118.804 553.722 121.855 555.273 124.906 556.048 128.46 556.048 132.517 556.048 136.574 555.273 140.119 553.722 143.153 552.188 146.187 550.014 148.548 547.202 150.236 544.389 151.923 541.065 152.767 537.23 152.767ZM537.281 145.352C539.361 145.352 541.099 144.781 542.497 143.639 543.895 142.48 544.935 140.929 545.616 138.986 546.315 137.043 546.665 134.878 546.665 132.491 546.665 130.088 546.315 127.915 545.616 125.972 544.935 124.011 543.895 122.452 542.497 121.293 541.099 120.134 539.361 119.554 537.281 119.554 535.151 119.554 533.378 120.134 531.963 121.293 530.565 122.452 529.517 124.011 528.818 125.972 528.136 127.915 527.795 130.088 527.795 132.491 527.795 134.878 528.136 137.043 528.818 138.986 529.517 140.929 530.565 142.48 531.963 143.639 533.378 144.781 535.151 145.352 537.281 145.352ZM570.884 152 559.788 112.727H569.222L576.126 140.341H576.484L583.54 112.727H592.873L599.93 140.188H600.313L607.114 112.727H616.575L605.452 152H595.813L588.45 125.46H587.913L580.549 152H570.884ZM632.293 128.989V152H623.037V112.727H631.884V119.401H632.344C633.247 117.202 634.688 115.455 636.665 114.159 638.659 112.864 641.122 112.216 644.054 112.216 646.764 112.216 649.125 112.795 651.136 113.955 653.165 115.114 654.733 116.793 655.841 118.991 656.966 121.19 657.52 123.858 657.503 126.994V152H648.247V128.426C648.247 125.801 647.565 123.747 646.202 122.264 644.855 120.781 642.989 120.04 640.602 120.04 638.983 120.04 637.543 120.398 636.281 121.114 635.037 121.812 634.057 122.827 633.341 124.156 632.642 125.486 632.293 127.097 632.293 128.989ZM676.168 99.6364V152H666.912V99.6364H676.168ZM702.816 152.767C698.981 152.767 695.657 151.923 692.844 150.236 690.032 148.548 687.85 146.187 686.299 143.153 684.765 140.119 683.998 136.574 683.998 132.517 683.998 128.46 684.765 124.906 686.299 121.855 687.85 118.804 690.032 116.435 692.844 114.747 695.657 113.06 698.981 112.216 702.816 112.216 706.651 112.216 709.975 113.06 712.788 114.747 715.6 116.435 717.773 118.804 719.308 121.855 720.859 124.906 721.634 128.46 721.634 132.517 721.634 136.574 720.859 140.119 719.308 143.153 717.773 146.187 715.6 148.548 712.788 150.236 709.975 151.923 706.651 152.767 702.816 152.767ZM702.867 145.352C704.947 145.352 706.685 144.781 708.083 143.639 709.481 142.48 710.521 140.929 711.202 138.986 711.901 137.043 712.251 134.878 712.251 132.491 712.251 130.088 711.901 127.915 711.202 125.972 710.521 124.011 709.481 122.452 708.083 121.293 706.685 120.134 704.947 119.554 702.867 119.554 700.737 119.554 698.964 120.134 697.549 121.293 696.151 122.452 695.103 124.011 694.404 125.972 693.722 127.915 693.381 130.088 693.381 132.491 693.381 134.878 693.722 137.043 694.404 138.986 695.103 140.929 696.151 142.48 697.549 143.639 698.964 144.781 700.737 145.352 702.867 145.352ZM740.791 152.793C738.303 152.793 736.061 152.349 734.067 151.463 732.089 150.56 730.521 149.23 729.362 147.474 728.22 145.719 727.649 143.554 727.649 140.98 727.649 138.764 728.058 136.932 728.876 135.483 729.695 134.034 730.811 132.875 732.226 132.006 733.641 131.136 735.234 130.48 737.007 130.037 738.797 129.577 740.646 129.244 742.555 129.04 744.857 128.801 746.723 128.588 748.155 128.401 749.587 128.196 750.626 127.889 751.274 127.48 751.939 127.054 752.271 126.398 752.271 125.511V125.358C752.271 123.432 751.7 121.94 750.558 120.884 749.416 119.827 747.771 119.298 745.624 119.298 743.357 119.298 741.558 119.793 740.229 120.781 738.916 121.77 738.03 122.937 737.57 124.284L728.928 123.057C729.609 120.67 730.734 118.676 732.303 117.074 733.871 115.455 735.788 114.244 738.055 113.443 740.322 112.625 742.828 112.216 745.572 112.216 747.464 112.216 749.348 112.438 751.223 112.881 753.098 113.324 754.811 114.057 756.362 115.08 757.913 116.085 759.158 117.457 760.095 119.196 761.05 120.935 761.527 123.108 761.527 125.716V152H752.629V146.605H752.322C751.76 147.696 750.967 148.719 749.945 149.673 748.939 150.611 747.669 151.369 746.135 151.949 744.618 152.511 742.837 152.793 740.791 152.793ZM743.195 145.991C745.053 145.991 746.663 145.625 748.027 144.892 749.391 144.142 750.439 143.153 751.172 141.926 751.922 140.699 752.297 139.361 752.297 137.912V133.284C752.007 133.523 751.513 133.744 750.814 133.949 750.132 134.153 749.365 134.332 748.513 134.486 747.661 134.639 746.817 134.776 745.982 134.895 745.146 135.014 744.422 135.116 743.808 135.202 742.428 135.389 741.192 135.696 740.101 136.122 739.01 136.548 738.149 137.145 737.518 137.912 736.888 138.662 736.572 139.634 736.572 140.827 736.572 142.531 737.195 143.818 738.439 144.688 739.683 145.557 741.268 145.991 743.195 145.991ZM785.408 152.69C782.322 152.69 779.561 151.898 777.124 150.312 774.686 148.727 772.76 146.426 771.345 143.409 769.93 140.392 769.223 136.727 769.223 132.415 769.223 128.051 769.939 124.369 771.371 121.369 772.82 118.352 774.771 116.077 777.226 114.543 779.68 112.991 782.416 112.216 785.433 112.216 787.734 112.216 789.626 112.608 791.109 113.392 792.592 114.159 793.768 115.088 794.638 116.179 795.507 117.253 796.18 118.267 796.658 119.222H797.041V99.6364H806.322V152H797.22V145.812H796.658C796.18 146.767 795.49 147.781 794.587 148.855 793.683 149.912 792.49 150.815 791.007 151.565 789.524 152.315 787.658 152.69 785.408 152.69ZM787.99 145.097C789.95 145.097 791.621 144.568 793.001 143.511 794.382 142.437 795.43 140.946 796.146 139.037 796.862 137.128 797.22 134.903 797.22 132.364 797.22 129.824 796.862 127.616 796.146 125.741 795.447 123.866 794.408 122.409 793.027 121.369 791.663 120.33 789.984 119.81 787.99 119.81 785.928 119.81 784.206 120.347 782.825 121.42 781.445 122.494 780.405 123.977 779.706 125.869 779.007 127.761 778.658 129.926 778.658 132.364 778.658 134.818 779.007 137.009 779.706 138.935 780.422 140.844 781.47 142.352 782.851 143.46 784.249 144.551 785.962 145.097 787.99 145.097ZM845.346 152.793C842.857 152.793 840.616 152.349 838.621 151.463 836.644 150.56 835.076 149.23 833.917 147.474 832.775 145.719 832.204 143.554 832.204 140.98 832.204 138.764 832.613 136.932 833.431 135.483 834.249 134.034 835.366 132.875 836.781 132.006 838.195 131.136 839.789 130.48 841.562 130.037 843.352 129.577 845.201 129.244 847.11 129.04 849.411 128.801 851.278 128.588 852.71 128.401 854.141 128.196 855.181 127.889 855.829 127.48 856.494 127.054 856.826 126.398 856.826 125.511V125.358C856.826 123.432 856.255 121.94 855.113 120.884 853.971 119.827 852.326 119.298 850.178 119.298 847.911 119.298 846.113 119.793 844.783 120.781 843.471 121.77 842.585 122.937 842.124 124.284L833.482 123.057C834.164 120.67 835.289 118.676 836.857 117.074 838.425 115.455 840.343 114.244 842.61 113.443 844.877 112.625 847.383 112.216 850.127 112.216 852.019 112.216 853.903 112.438 855.778 112.881 857.653 113.324 859.366 114.057 860.917 115.08 862.468 116.085 863.712 117.457 864.65 119.196 865.604 120.935 866.082 123.108 866.082 125.716V152H857.184V146.605H856.877C856.315 147.696 855.522 148.719 854.499 149.673 853.494 150.611 852.224 151.369 850.69 151.949 849.173 152.511 847.391 152.793 845.346 152.793ZM847.749 145.991C849.607 145.991 851.218 145.625 852.582 144.892 853.945 144.142 854.994 143.153 855.727 141.926 856.477 140.699 856.852 139.361 856.852 137.912V133.284C856.562 133.523 856.067 133.744 855.369 133.949 854.687 134.153 853.92 134.332 853.067 134.486 852.215 134.639 851.371 134.776 850.536 134.895 849.701 135.014 848.977 135.116 848.363 135.202 846.982 135.389 845.746 135.696 844.656 136.122 843.565 136.548 842.704 137.145 842.073 137.912 841.442 138.662 841.127 139.634 841.127 140.827 841.127 142.531 841.749 143.818 842.994 144.688 844.238 145.557 845.823 145.991 847.749 145.991ZM894.999 112.727V119.886H872.423V112.727H894.999ZM877.996 103.318H887.252V140.188C887.252 141.432 887.44 142.386 887.815 143.051 888.207 143.699 888.718 144.142 889.349 144.381 889.979 144.619 890.678 144.739 891.445 144.739 892.025 144.739 892.553 144.696 893.031 144.611 893.525 144.526 893.9 144.449 894.156 144.381L895.715 151.616C895.221 151.787 894.513 151.974 893.593 152.179 892.69 152.384 891.582 152.503 890.269 152.537 887.951 152.605 885.863 152.256 884.005 151.489 882.147 150.705 880.673 149.494 879.582 147.858 878.508 146.222 877.979 144.176 877.996 141.722V103.318ZM922.351 112.727V119.886H899.774V112.727H922.351ZM905.348 103.318H914.604V140.188C914.604 141.432 914.791 142.386 915.166 143.051 915.558 143.699 916.07 144.142 916.7 144.381 917.331 144.619 918.03 144.739 918.797 144.739 919.376 144.739 919.905 144.696 920.382 144.611 920.876 144.526 921.251 144.449 921.507 144.381L923.067 151.616C922.572 151.787 921.865 151.974 920.945 152.179 920.041 152.384 918.933 152.503 917.621 152.537 915.303 152.605 913.214 152.256 911.357 151.489 909.499 150.705 908.024 149.494 906.933 147.858 905.859 146.222 905.331 144.176 905.348 141.722V103.318ZM941.393 152.793C938.904 152.793 936.663 152.349 934.668 151.463 932.691 150.56 931.123 149.23 929.964 147.474 928.822 145.719 928.251 143.554 928.251 140.98 928.251 138.764 928.66 136.932 929.478 135.483 930.296 134.034 931.413 132.875 932.827 132.006 934.242 131.136 935.836 130.48 937.609 130.037 939.398 129.577 941.248 129.244 943.157 129.04 945.458 128.801 947.325 128.588 948.756 128.401 950.188 128.196 951.228 127.889 951.876 127.48 952.54 127.054 952.873 126.398 952.873 125.511V125.358C952.873 123.432 952.302 121.94 951.16 120.884 950.018 119.827 948.373 119.298 946.225 119.298 943.958 119.298 942.16 119.793 940.83 120.781 939.518 121.77 938.631 122.937 938.171 124.284L929.529 123.057C930.211 120.67 931.336 118.676 932.904 117.074 934.472 115.455 936.39 114.244 938.657 113.443 940.924 112.625 943.43 112.216 946.174 112.216 948.066 112.216 949.95 112.438 951.825 112.881 953.7 113.324 955.413 114.057 956.964 115.08 958.515 116.085 959.759 117.457 960.697 119.196 961.651 120.935 962.129 123.108 962.129 125.716V152H953.231V146.605H952.924C952.362 147.696 951.569 148.719 950.546 149.673 949.54 150.611 948.271 151.369 946.737 151.949 945.219 152.511 943.438 152.793 941.393 152.793ZM943.796 145.991C945.654 145.991 947.265 145.625 948.629 144.892 949.992 144.142 951.04 143.153 951.773 141.926 952.523 140.699 952.898 139.361 952.898 137.912V133.284C952.609 133.523 952.114 133.744 951.415 133.949 950.734 134.153 949.967 134.332 949.114 134.486 948.262 134.639 947.418 134.776 946.583 134.895 945.748 135.014 945.023 135.116 944.41 135.202 943.029 135.389 941.793 135.696 940.702 136.122 939.612 136.548 938.751 137.145 938.12 137.912 937.489 138.662 937.174 139.634 937.174 140.827 937.174 142.531 937.796 143.818 939.04 144.688 940.285 145.557 941.87 145.991 943.796 145.991ZM988.566 152.767C984.646 152.767 981.279 151.906 978.467 150.185 975.671 148.463 973.515 146.085 971.998 143.051 970.498 140 969.748 136.489 969.748 132.517 969.748 128.528 970.515 125.009 972.049 121.957 973.583 118.889 975.748 116.503 978.543 114.798 981.356 113.077 984.68 112.216 988.515 112.216 991.702 112.216 994.523 112.804 996.978 113.98 999.45 115.139 1001.42 116.784 1002.88 118.915 1004.35 121.028 1005.19 123.5 1005.39 126.33H996.543C996.185 124.437 995.333 122.861 993.987 121.599 992.657 120.321 990.876 119.682 988.643 119.682 986.751 119.682 985.089 120.193 983.657 121.216 982.225 122.222 981.109 123.67 980.308 125.562 979.523 127.455 979.131 129.722 979.131 132.364 979.131 135.04 979.523 137.341 980.308 139.267 981.092 141.176 982.191 142.651 983.606 143.69 985.038 144.713 986.717 145.224 988.643 145.224 990.006 145.224 991.225 144.969 992.299 144.457 993.39 143.929 994.302 143.17 995.035 142.182 995.768 141.193 996.271 139.991 996.543 138.577H1005.39C1005.17 141.355 1004.35 143.818 1002.94 145.966 1001.52 148.097 999.594 149.767 997.157 150.977 994.719 152.17 991.856 152.767 988.566 152.767ZM1021.43 139.676 1021.4 128.503H1022.88L1037 112.727H1047.81L1030.45 132.057H1028.54L1021.43 139.676ZM1012.99 152V99.6364H1022.25V152H1012.99ZM1037.64 152 1024.85 134.128 1031.09 127.608 1048.71 152H1037.64Z" fill="#000000"/><path d="M413.888 327.639C420.805 339.619 420.805 354.38 413.888 366.361L386.244 414.241C379.327 426.222 366.544 433.603 352.709 433.603L297.422 433.603C283.588 433.603 270.805 426.222 263.888 414.241L236.244 366.361C229.327 354.38 229.327 339.619 236.244 327.639L263.888 279.759C270.805 267.778 283.588 260.397 297.422 260.397L352.709 260.397C366.544 260.397 379.327 267.778 386.244 279.759L413.888 327.639Z" fill="#ff7059"/><path d="M292.202 324.139C292.202 321.763 294.122 319.852 296.489 319.852 298.864 319.852 300.775 321.763 300.775 324.139 300.775 326.514 298.864 328.425 296.489 328.425 294.122 328.425 292.202 326.514 292.202 324.139ZM317.922 324.139C317.922 326.514 316.01 328.425 313.635 328.425 311.26 328.425 309.348 326.514 309.348 324.139 309.348 321.763 311.26 319.852 313.635 319.852 316.01 319.852 317.922 321.763 317.922 324.139ZM326.495 324.139C326.495 321.763 328.406 319.852 330.781 319.852 333.157 319.852 335.068 321.763 335.068 324.139 335.068 326.514 333.157 328.425 330.781 328.425 328.406 328.425 326.495 326.514 326.495 324.139ZM279.342 318.424C279.342 312.11 284.46 306.993 290.773 306.993H359.358C365.663 306.993 370.789 312.11 370.789 318.424V375.578C370.789 381.883 365.663 387.009 359.358 387.009H290.773C284.46 387.009 279.342 381.883 279.342 375.578V318.424ZM285.058 318.424V375.578C285.058 378.739 287.617 381.293 290.773 381.293H359.358C362.52 381.293 365.074 378.739 365.074 375.578V318.424C365.074 315.268 362.52 312.708 359.358 312.708H290.773C287.617 312.708 285.058 315.268 285.058 318.424Z" fill="#ffffff"/><path d="M249.456 520 240.507 487.273H244.534L251.374 513.928H251.693L258.661 487.273H263.135L270.102 513.928H270.422L277.261 487.273H281.288L272.34 520H268.249L261.026 493.92H260.77L253.547 520H249.456ZM293.721 520.511C291.356 520.511 289.316 519.989 287.601 518.945 285.896 517.891 284.58 516.42 283.653 514.535 282.737 512.638 282.279 510.433 282.279 507.919 282.279 505.405 282.737 503.189 283.653 501.271 284.58 499.343 285.869 497.841 287.521 496.765 289.183 495.678 291.121 495.135 293.337 495.135 294.616 495.135 295.878 495.348 297.125 495.774 298.371 496.2 299.506 496.893 300.528 497.852 301.551 498.8 302.366 500.057 302.973 501.623 303.581 503.189 303.884 505.117 303.884 507.408V509.006H284.964V505.746H300.049C300.049 504.361 299.772 503.125 299.218 502.038 298.675 500.952 297.897 500.094 296.885 499.466 295.884 498.837 294.701 498.523 293.337 498.523 291.835 498.523 290.536 498.896 289.438 499.641 288.352 500.376 287.515 501.335 286.929 502.518 286.343 503.7 286.05 504.968 286.05 506.321V508.494C286.05 510.348 286.37 511.919 287.009 513.208 287.659 514.487 288.559 515.462 289.71 516.133 290.86 516.793 292.197 517.124 293.721 517.124 294.712 517.124 295.607 516.985 296.406 516.708 297.215 516.42 297.913 515.994 298.499 515.43 299.085 514.854 299.538 514.141 299.857 513.288L303.501 514.311C303.117 515.547 302.473 516.634 301.567 517.571 300.662 518.498 299.543 519.222 298.211 519.744 296.88 520.256 295.383 520.511 293.721 520.511ZM310.133 520V487.273H313.904V499.354H314.223C314.5 498.928 314.884 498.384 315.374 497.724 315.875 497.053 316.588 496.456 317.515 495.934 318.453 495.401 319.721 495.135 321.319 495.135 323.385 495.135 325.207 495.652 326.784 496.685 328.36 497.718 329.591 499.183 330.475 501.08 331.359 502.976 331.802 505.213 331.802 507.791 331.802 510.391 331.359 512.644 330.475 514.551 329.591 516.447 328.366 517.917 326.8 518.961 325.234 519.995 323.428 520.511 321.383 520.511 319.806 520.511 318.543 520.25 317.595 519.728 316.647 519.196 315.917 518.594 315.406 517.923 314.895 517.241 314.5 516.676 314.223 516.229H313.776V520H310.133ZM313.84 507.727C313.84 509.581 314.112 511.216 314.655 512.633 315.198 514.039 315.992 515.142 317.036 515.941 318.08 516.729 319.358 517.124 320.871 517.124 322.448 517.124 323.764 516.708 324.818 515.877 325.884 515.036 326.683 513.906 327.215 512.489 327.759 511.062 328.03 509.474 328.03 507.727 328.03 506.001 327.764 504.446 327.231 503.061 326.709 501.665 325.916 500.563 324.85 499.753 323.795 498.933 322.469 498.523 320.871 498.523 319.337 498.523 318.048 498.912 317.004 499.689 315.96 500.456 315.172 501.532 314.639 502.917 314.106 504.292 313.84 505.895 313.84 507.727ZM354.957 500.952 351.569 501.911C351.356 501.346 351.042 500.797 350.626 500.265 350.221 499.721 349.667 499.274 348.964 498.922 348.261 498.571 347.361 498.395 346.264 498.395 344.761 498.395 343.51 498.741 342.508 499.434 341.517 500.115 341.022 500.984 341.022 502.038 341.022 502.976 341.363 503.716 342.045 504.26 342.727 504.803 343.792 505.256 345.241 505.618L348.884 506.513C351.079 507.045 352.714 507.86 353.79 508.958 354.866 510.044 355.404 511.445 355.404 513.161 355.404 514.567 354.999 515.824 354.19 516.932 353.391 518.04 352.272 518.913 350.834 519.553 349.396 520.192 347.723 520.511 345.816 520.511 343.313 520.511 341.24 519.968 339.6 518.881 337.959 517.795 336.92 516.207 336.484 514.119L340.063 513.224C340.404 514.545 341.049 515.536 341.997 516.197 342.956 516.857 344.207 517.188 345.752 517.188 347.51 517.188 348.906 516.815 349.939 516.069 350.983 515.312 351.505 514.407 351.505 513.352 351.505 512.5 351.207 511.786 350.61 511.211 350.014 510.625 349.097 510.188 347.862 509.901L343.771 508.942C341.523 508.409 339.871 507.583 338.817 506.465 337.773 505.336 337.251 503.924 337.251 502.23 337.251 500.845 337.64 499.62 338.417 498.555 339.206 497.489 340.276 496.653 341.629 496.046 342.993 495.439 344.538 495.135 346.264 495.135 348.693 495.135 350.599 495.668 351.984 496.733 353.38 497.798 354.371 499.205 354.957 500.952ZM361.081 520V495.455H364.852V520H361.081ZM362.999 491.364C362.264 491.364 361.63 491.113 361.097 490.613 360.575 490.112 360.314 489.51 360.314 488.807 360.314 488.104 360.575 487.502 361.097 487.001 361.63 486.5 362.264 486.25 362.999 486.25 363.734 486.25 364.362 486.5 364.884 487.001 365.417 487.502 365.683 488.104 365.683 488.807 365.683 489.51 365.417 490.112 364.884 490.613 364.362 491.113 363.734 491.364 362.999 491.364ZM382.435 495.455V498.651H369.714V495.455H382.435ZM373.422 489.574H377.193V512.969C377.193 514.034 377.348 514.833 377.656 515.366 377.976 515.888 378.381 516.239 378.871 516.42 379.372 516.591 379.899 516.676 380.453 516.676 380.868 516.676 381.209 516.655 381.476 516.612 381.742 516.559 381.955 516.516 382.115 516.484L382.882 519.872C382.626 519.968 382.269 520.064 381.811 520.16 381.353 520.266 380.773 520.32 380.069 520.32 379.004 520.32 377.96 520.091 376.937 519.632 375.925 519.174 375.084 518.477 374.413 517.539 373.752 516.602 373.422 515.419 373.422 513.991V489.574ZM398.135 520.511C395.77 520.511 393.73 519.989 392.015 518.945 390.31 517.891 388.994 516.42 388.068 514.535 387.151 512.638 386.693 510.433 386.693 507.919 386.693 505.405 387.151 503.189 388.068 501.271 388.994 499.343 390.283 497.841 391.935 496.765 393.597 495.678 395.536 495.135 397.751 495.135 399.03 495.135 400.292 495.348 401.539 495.774 402.785 496.2 403.92 496.893 404.943 497.852 405.965 498.8 406.78 500.057 407.387 501.623 407.995 503.189 408.298 505.117 408.298 507.408V509.006H389.378V505.746H404.463C404.463 504.361 404.186 503.125 403.632 502.038 403.089 500.952 402.311 500.094 401.299 499.466 400.298 498.837 399.115 498.523 397.751 498.523 396.249 498.523 394.95 498.896 393.852 499.641 392.766 500.376 391.929 501.335 391.343 502.518 390.758 503.7 390.465 504.968 390.465 506.321V508.494C390.465 510.348 390.784 511.919 391.423 513.208 392.073 514.487 392.973 515.462 394.124 516.133 395.275 516.793 396.612 517.124 398.135 517.124 399.126 517.124 400.021 516.985 400.82 516.708 401.629 516.42 402.327 515.994 402.913 515.43 403.499 514.854 403.952 514.141 404.271 513.288L407.915 514.311C407.531 515.547 406.887 516.634 405.981 517.571 405.076 518.498 403.957 519.222 402.625 519.744 401.294 520.256 399.797 520.511 398.135 520.511Z" fill="#000000"/><path d="M930.158 327.639C937.075 339.619 937.075 354.38 930.158 366.361L902.514 414.241C895.597 426.222 882.814 433.603 868.979 433.603L813.692 433.603C799.858 433.603 787.075 426.222 780.158 414.241L752.514 366.361C745.597 354.38 745.597 339.619 752.514 327.639L780.158 279.759C787.075 267.778 799.858 260.397 813.692 260.397L868.979 260.397C882.814 260.397 895.597 267.778 902.514 279.759L930.158 327.639Z" fill="#ff7059"/><path d="M881.384 301.231H801.288C794.968 301.231 789.845 306.353 789.845 312.673V364.163C789.845 370.483 794.968 375.605 801.288 375.605H828.052L824.619 387.048H815.591C814.017 387.048 812.73 388.335 812.73 389.908 812.73 391.482 814.017 392.769 815.591 392.769H867.081C868.661 392.769 869.941 391.488 869.941 389.908 869.941 388.329 868.654 387.048 867.081 387.048H858.054L854.621 375.605H881.384C887.704 375.605 892.826 370.483 892.826 364.163V312.673C892.826 306.353 887.695 301.231 881.384 301.231ZM830.591 387.048 834.023 375.605H848.646L852.079 387.048H830.591ZM887.105 364.163C887.105 367.317 884.537 369.884 881.384 369.884H801.288C798.134 369.884 795.567 367.317 795.567 364.163V312.673C795.567 309.519 798.134 306.952 801.288 306.952H881.384C884.537 306.952 887.105 309.519 887.105 312.673V364.163ZM831.914 324.956C830.796 323.838 828.985 323.838 827.87 324.956L816.427 336.398C815.31 337.515 815.31 339.326 816.427 340.442L827.87 351.884C828.427 352.435 829.16 352.721 829.893 352.721 830.626 352.721 831.357 352.442 831.915 351.883 833.033 350.765 833.033 348.954 831.915 347.839L822.492 338.418 831.912 328.998C833.04 327.888 833.04 326.064 831.914 324.956ZM854.798 324.956C853.681 323.838 851.87 323.838 850.754 324.956 849.638 326.073 849.637 327.884 850.754 329L860.18 338.418 850.759 347.838C849.642 348.956 849.642 350.767 850.759 351.882 851.312 352.435 852.045 352.721 852.778 352.721 853.511 352.721 854.242 352.442 854.8 351.883L866.242 340.441C867.36 339.323 867.36 337.512 866.242 336.396L854.798 324.956Z" fill="#ffffff"/><path d="M741.632 520V487.273H761.383V490.788H745.595V501.847H760.361V505.362H745.595V516.484H761.639V520H741.632ZM770.828 495.455 776.708 505.49 782.589 495.455H786.936L779.01 507.727 786.936 520H782.589L776.708 510.476 770.828 520H766.481L774.279 507.727 766.481 495.455H770.828ZM792.317 529.205V495.455H795.96V499.354H796.408C796.685 498.928 797.068 498.384 797.558 497.724 798.059 497.053 798.773 496.456 799.7 495.934 800.637 495.401 801.905 495.135 803.503 495.135 805.57 495.135 807.392 495.652 808.968 496.685 810.545 497.718 811.775 499.183 812.66 501.08 813.544 502.976 813.986 505.213 813.986 507.791 813.986 510.391 813.544 512.644 812.66 514.551 811.775 516.447 810.55 517.917 808.984 518.961 807.418 519.995 805.612 520.511 803.567 520.511 801.99 520.511 800.728 520.25 799.78 519.728 798.831 519.196 798.102 518.594 797.59 517.923 797.079 517.241 796.685 516.676 796.408 516.229H796.088V529.205H792.317ZM796.024 507.727C796.024 509.581 796.296 511.216 796.839 512.633 797.383 514.039 798.176 515.142 799.22 515.941 800.264 516.729 801.543 517.124 803.056 517.124 804.632 517.124 805.948 516.708 807.003 515.877 808.068 515.036 808.867 513.906 809.4 512.489 809.943 511.062 810.215 509.474 810.215 507.727 810.215 506.001 809.948 504.446 809.416 503.061 808.894 501.665 808.1 500.563 807.035 499.753 805.98 498.933 804.654 498.523 803.056 498.523 801.521 498.523 800.232 498.912 799.188 499.689 798.144 500.456 797.356 501.532 796.823 502.917 796.291 504.292 796.024 505.895 796.024 507.727ZM823.51 487.273V520H819.739V487.273H823.51ZM840.389 520.511C838.173 520.511 836.229 519.984 834.556 518.929 832.894 517.875 831.595 516.399 830.657 514.503 829.73 512.607 829.267 510.391 829.267 507.855 829.267 505.298 829.73 503.066 830.657 501.159 831.595 499.252 832.894 497.772 834.556 496.717 836.229 495.662 838.173 495.135 840.389 495.135 842.605 495.135 844.544 495.662 846.206 496.717 847.878 497.772 849.178 499.252 850.105 501.159 851.043 503.066 851.511 505.298 851.511 507.855 851.511 510.391 851.043 512.607 850.105 514.503 849.178 516.399 847.878 517.875 846.206 518.929 844.544 519.984 842.605 520.511 840.389 520.511ZM840.389 517.124C842.072 517.124 843.457 516.692 844.544 515.829 845.631 514.966 846.435 513.832 846.957 512.425 847.479 511.019 847.74 509.496 847.74 507.855 847.74 506.214 847.479 504.686 846.957 503.269 846.435 501.852 845.631 500.707 844.544 499.833 843.457 498.96 842.072 498.523 840.389 498.523 838.706 498.523 837.321 498.96 836.234 499.833 835.148 500.707 834.343 501.852 833.821 503.269 833.299 504.686 833.038 506.214 833.038 507.855 833.038 509.496 833.299 511.019 833.821 512.425 834.343 513.832 835.148 514.966 836.234 515.829 837.321 516.692 838.706 517.124 840.389 517.124ZM857.268 520V495.455H861.039V520H857.268ZM859.186 491.364C858.451 491.364 857.817 491.113 857.284 490.613 856.762 490.112 856.501 489.51 856.501 488.807 856.501 488.104 856.762 487.502 857.284 487.001 857.817 486.5 858.451 486.25 859.186 486.25 859.921 486.25 860.549 486.5 861.071 487.001 861.604 487.502 861.87 488.104 861.87 488.807 861.87 489.51 861.604 490.112 861.071 490.613 860.549 491.113 859.921 491.364 859.186 491.364ZM878.622 495.455V498.651H865.901V495.455H878.622ZM869.609 489.574H873.38V512.969C873.38 514.034 873.535 514.833 873.843 515.366 874.163 515.888 874.568 516.239 875.058 516.42 875.559 516.591 876.086 516.676 876.64 516.676 877.055 516.676 877.396 516.655 877.663 516.612 877.929 516.559 878.142 516.516 878.302 516.484L879.069 519.872C878.813 519.968 878.456 520.064 877.998 520.16 877.54 520.266 876.96 520.32 876.256 520.32 875.191 520.32 874.147 520.091 873.124 519.632 872.112 519.174 871.271 518.477 870.6 517.539 869.939 516.602 869.609 515.419 869.609 513.991V489.574ZM900.466 511.051 900.402 506.385H901.169L911.908 495.455H916.574L905.133 507.024H904.813L900.466 511.051ZM896.951 520V487.273H900.722V520H896.951ZM912.547 520 902.959 507.855 905.644 505.234 917.341 520H912.547ZM921.428 520V495.455H925.2V520H921.428ZM923.346 491.364C922.611 491.364 921.977 491.113 921.444 490.613 920.922 490.112 920.661 489.51 920.661 488.807 920.661 488.104 920.922 487.502 921.444 487.001 921.977 486.5 922.611 486.25 923.346 486.25 924.081 486.25 924.71 486.5 925.232 487.001 925.764 487.502 926.031 488.104 926.031 488.807 926.031 489.51 925.764 490.112 925.232 490.613 924.71 491.113 924.081 491.364 923.346 491.364ZM942.782 495.455V498.651H930.062V495.455H942.782ZM933.769 489.574H937.54V512.969C937.54 514.034 937.695 514.833 938.004 515.366 938.323 515.888 938.728 516.239 939.218 516.42 939.719 516.591 940.246 516.676 940.8 516.676 941.216 516.676 941.557 516.655 941.823 516.612 942.089 516.559 942.302 516.516 942.462 516.484L943.229 519.872C942.973 519.968 942.617 520.064 942.158 520.16 941.7 520.266 941.12 520.32 940.417 520.32 939.351 520.32 938.307 520.091 937.285 519.632 936.272 519.174 935.431 518.477 934.76 517.539 934.099 516.602 933.769 515.419 933.769 513.991V489.574Z" fill="#000000"/><path d="M930.157 774.639C937.074 786.619 937.074 801.38 930.157 813.361L902.514 861.241C895.597 873.222 882.813 880.603 868.979 880.603L813.692 880.603C799.858 880.603 787.074 873.222 780.157 861.241L752.514 813.361C745.597 801.38 745.597 786.619 752.514 774.639L780.157 726.759C787.074 714.778 799.858 707.397 813.692 707.397L868.979 707.397C882.813 707.397 895.597 714.778 902.514 726.759L930.157 774.639Z" fill="#ff7059"/><path d="M821.312 788.279C821.312 783.541 825.155 779.697 829.893 779.697 834.631 779.697 838.475 783.541 838.475 788.279 838.475 793.016 834.631 796.86 829.893 796.86 825.155 796.86 821.312 793.016 821.312 788.279ZM829.893 791.139C831.467 791.139 832.754 789.852 832.754 788.279 832.754 786.705 831.467 785.418 829.893 785.418 828.32 785.418 827.033 786.705 827.033 788.279 827.033 789.852 828.32 791.139 829.893 791.139ZM845.626 802.581C845.626 800.204 847.539 798.291 849.917 798.291 852.295 798.291 854.208 800.204 854.208 802.581 854.208 804.959 852.295 806.872 849.917 806.872 847.539 806.872 845.626 804.959 845.626 802.581ZM848.487 748.231C850.06 748.231 851.347 749.512 851.347 751.091 851.347 752.672 850.06 753.952 848.487 753.952H844.196V761.227C851.133 761.824 857.444 764.573 862.486 768.809L867.635 763.66 864.595 760.626C863.487 759.508 863.487 757.697 864.595 756.58 865.722 755.463 867.528 755.463 868.636 756.58L878.755 766.699C879.882 767.808 879.882 769.613 878.755 770.74 877.647 771.848 875.823 771.848 874.715 770.74L871.675 767.7 866.526 772.849C870.764 777.891 873.356 784.202 874.107 791.139H881.383V786.848C881.383 785.275 882.671 783.988 884.244 783.988 885.817 783.988 887.105 785.275 887.105 786.848V801.151C887.105 802.725 885.817 804.012 884.244 804.012 882.671 804.012 881.383 802.725 881.383 801.151V796.86H874.107C873.356 803.797 870.764 810.108 866.526 815.15L871.675 820.299 874.715 817.26C875.823 816.151 877.647 816.151 878.755 817.26 879.864 818.386 879.864 820.192 878.755 821.3L868.636 831.42C867.528 832.546 865.722 832.546 864.595 831.42 863.487 830.311 863.487 828.488 864.595 827.379L867.635 824.34 862.486 819.191C857.444 823.428 851.133 826.02 844.196 826.771V834.048H848.487C850.06 834.048 851.347 835.335 851.347 836.908 851.347 838.482 850.06 839.769 848.487 839.769H834.023C832.611 839.769 831.163 838.482 831.163 836.908 831.163 835.335 832.611 834.048 834.023 834.048H838.314V826.771C831.538 826.02 825.227 823.428 820.185 819.191L815.036 824.34 818.075 827.379C819.184 828.488 819.184 830.311 818.075 831.42 816.949 832.528 815.143 832.528 814.035 831.42L803.916 821.3C802.798 820.192 802.798 818.386 803.916 817.26 805.031 816.151 806.842 816.151 807.96 817.26L810.996 820.299 816.145 815.15C811.909 810.108 809.159 803.797 808.562 796.699H801.288V800.99C801.288 802.725 800.007 803.851 798.427 803.851 796.847 803.851 795.566 802.725 795.566 800.99V786.687C795.566 785.275 796.847 783.827 798.427 783.827 800.007 783.827 801.288 785.275 801.288 786.687V790.978H808.562C809.159 784.202 811.909 777.891 816.145 772.849L810.996 767.7 807.962 770.74C806.844 771.848 805.033 771.848 803.916 770.74 802.798 769.613 802.798 767.808 803.916 766.699L814.035 756.58C815.143 755.463 816.949 755.463 818.075 756.58 819.184 757.696 819.184 759.507 818.075 760.624L815.036 763.66 820.185 768.809C825.227 764.573 831.538 761.824 838.475 761.227V753.952H834.184C832.611 753.952 831.323 752.672 831.323 751.091 831.323 749.512 832.611 748.231 834.184 748.231H848.487ZM841.335 821.175C856.336 821.175 868.511 809 868.511 794 868.511 779 856.336 766.824 841.335 766.824 826.335 766.824 814.16 779 814.16 794 814.16 809 826.335 821.175 841.335 821.175Z" fill="#ffffff"/><path d="M755.211 934.273H759.941L771.063 961.439H771.446L782.569 934.273H787.299V967H783.591V942.135H783.272L773.044 967H769.465L759.238 942.135H758.918V967H755.211V934.273ZM801.956 967.575C800.401 967.575 798.989 967.282 797.722 966.696 796.454 966.1 795.447 965.242 794.701 964.124 793.956 962.994 793.583 961.631 793.583 960.033 793.583 958.626 793.86 957.487 794.414 956.613 794.968 955.729 795.708 955.036 796.635 954.536 797.562 954.035 798.585 953.662 799.703 953.417 800.833 953.161 801.967 952.959 803.107 952.81 804.598 952.618 805.808 952.474 806.735 952.378 807.672 952.272 808.354 952.096 808.78 951.851 809.217 951.606 809.435 951.18 809.435 950.572V950.445C809.435 948.868 809.004 947.643 808.141 946.769 807.288 945.896 805.994 945.459 804.258 945.459 802.457 945.459 801.046 945.853 800.023 946.641 799 947.43 798.281 948.271 797.866 949.166L794.286 947.888C794.925 946.396 795.777 945.235 796.843 944.404 797.919 943.562 799.091 942.977 800.358 942.646 801.637 942.305 802.894 942.135 804.13 942.135 804.918 942.135 805.824 942.231 806.846 942.423 807.88 942.604 808.876 942.982 809.835 943.557 810.804 944.132 811.608 945.001 812.248 946.162 812.887 947.323 813.206 948.879 813.206 950.828V967H809.435V963.676H809.243C808.988 964.209 808.562 964.779 807.965 965.386 807.368 965.993 806.575 966.51 805.584 966.936 804.593 967.362 803.384 967.575 801.956 967.575ZM802.532 964.188C804.023 964.188 805.28 963.895 806.303 963.309 807.336 962.723 808.114 961.966 808.636 961.039 809.169 960.113 809.435 959.138 809.435 958.115V954.663C809.275 954.855 808.924 955.031 808.38 955.191 807.848 955.34 807.23 955.473 806.527 955.59 805.834 955.697 805.158 955.793 804.497 955.878 803.847 955.952 803.32 956.016 802.915 956.07 801.935 956.197 801.019 956.405 800.167 956.693 799.325 956.97 798.643 957.391 798.121 957.955 797.61 958.509 797.354 959.266 797.354 960.224 797.354 961.535 797.839 962.526 798.808 963.197 799.788 963.857 801.03 964.188 802.532 964.188ZM823.861 934.273V967H820.09V934.273H823.861ZM836.33 967 828.851 942.455H832.814L838.119 961.247H838.375L843.617 942.455H847.644L852.821 961.183H853.077L858.382 942.455H862.345L854.867 967H851.159L845.79 948.143H845.406L840.037 967H836.33ZM874.554 967.575C872.999 967.575 871.587 967.282 870.319 966.696 869.052 966.1 868.045 965.242 867.299 964.124 866.553 962.994 866.181 961.631 866.181 960.033 866.181 958.626 866.458 957.487 867.011 956.613 867.565 955.729 868.306 955.036 869.233 954.536 870.16 954.035 871.182 953.662 872.301 953.417 873.43 953.161 874.565 952.959 875.705 952.81 877.196 952.618 878.405 952.474 879.332 952.378 880.27 952.272 880.951 952.096 881.378 951.851 881.814 951.606 882.033 951.18 882.033 950.572V950.445C882.033 948.868 881.601 947.643 880.738 946.769 879.886 945.896 878.592 945.459 876.855 945.459 875.055 945.459 873.643 945.853 872.621 946.641 871.598 947.43 870.879 948.271 870.463 949.166L866.884 947.888C867.523 946.396 868.375 945.235 869.44 944.404 870.516 943.562 871.688 942.977 872.956 942.646 874.235 942.305 875.492 942.135 876.727 942.135 877.516 942.135 878.421 942.231 879.444 942.423 880.477 942.604 881.474 942.982 882.432 943.557 883.402 944.132 884.206 945.001 884.845 946.162 885.485 947.323 885.804 948.879 885.804 950.828V967H882.033V963.676H881.841C881.585 964.209 881.159 964.779 880.563 965.386 879.966 965.993 879.172 966.51 878.182 966.936 877.191 967.362 875.982 967.575 874.554 967.575ZM875.129 964.188C876.621 964.188 877.878 963.895 878.901 963.309 879.934 962.723 880.712 961.966 881.234 961.039 881.766 960.113 882.033 959.138 882.033 958.115V954.663C881.873 954.855 881.521 955.031 880.978 955.191 880.445 955.34 879.828 955.473 879.124 955.59 878.432 955.697 877.755 955.793 877.095 955.878 876.445 955.952 875.918 956.016 875.513 956.07 874.533 956.197 873.617 956.405 872.764 956.693 871.923 956.97 871.241 957.391 870.719 957.955 870.208 958.509 869.952 959.266 869.952 960.224 869.952 961.535 870.437 962.526 871.406 963.197 872.386 963.857 873.627 964.188 875.129 964.188ZM892.688 967V942.455H896.331V946.162H896.587C897.034 944.947 897.844 943.962 899.016 943.206 900.188 942.449 901.509 942.071 902.979 942.071 903.256 942.071 903.602 942.076 904.017 942.087 904.433 942.098 904.747 942.114 904.96 942.135V945.97C904.832 945.938 904.539 945.89 904.081 945.826 903.634 945.752 903.16 945.714 902.659 945.714 901.466 945.714 900.401 945.965 899.463 946.466 898.536 946.956 897.801 947.637 897.258 948.511 896.725 949.374 896.459 950.359 896.459 951.467V967H892.688ZM918.975 967.511C916.61 967.511 914.57 966.989 912.854 965.945 911.15 964.891 909.834 963.42 908.907 961.535 907.991 959.638 907.533 957.433 907.533 954.919 907.533 952.405 907.991 950.189 908.907 948.271 909.834 946.343 911.123 944.841 912.775 943.765 914.436 942.678 916.375 942.135 918.591 942.135 919.87 942.135 921.132 942.348 922.379 942.774 923.625 943.2 924.76 943.893 925.782 944.852 926.805 945.8 927.62 947.057 928.227 948.623 928.835 950.189 929.138 952.117 929.138 954.408V956.006H910.218V952.746H925.303C925.303 951.361 925.026 950.125 924.472 949.038 923.929 947.952 923.151 947.094 922.139 946.466 921.137 945.837 919.955 945.523 918.591 945.523 917.089 945.523 915.789 945.896 914.692 946.641 913.606 947.376 912.769 948.335 912.183 949.518 911.597 950.7 911.304 951.968 911.304 953.321V955.494C911.304 957.348 911.624 958.919 912.263 960.208 912.913 961.487 913.813 962.462 914.964 963.133 916.114 963.793 917.451 964.124 918.975 964.124 919.966 964.124 920.86 963.985 921.659 963.708 922.469 963.42 923.167 962.994 923.753 962.43 924.339 961.854 924.792 961.141 925.111 960.288L928.755 961.311C928.371 962.547 927.727 963.634 926.821 964.571 925.916 965.498 924.797 966.222 923.465 966.744 922.134 967.256 920.637 967.511 918.975 967.511Z" fill="#000000"/><path d="M413.888 774.639C420.805 786.619 420.805 801.38 413.888 813.361L386.244 861.241C379.327 873.222 366.544 880.603 352.709 880.603L297.422 880.603C283.588 880.603 270.805 873.222 263.888 861.241L236.244 813.361C229.327 801.38 229.327 786.619 236.244 774.639L263.888 726.759C270.805 714.778 283.588 707.397 297.422 707.397L352.709 707.397C366.544 707.397 379.327 714.778 386.244 726.759L413.888 774.639Z" fill="#ff7059"/><g clip-path="url(#clip0_134_1281)"><path d="M379.417 816.724H270.715C269.151 816.724 267.854 818.02 267.854 819.585V822.445C267.854 828.748 272.995 833.888 279.297 833.888H370.835C377.137 833.888 382.277 828.748 382.277 822.445V819.585C382.277 818.172 380.99 816.724 379.417 816.724ZM370.835 828.327H279.297C276.143 828.327 273.576 825.76 273.576 822.606H376.556C376.556 825.753 373.981 828.327 370.835 828.327ZM282.157 811.164C283.738 811.164 285.018 809.877 285.018 808.303V765.395C285.018 762.238 287.585 759.674 290.739 759.674H359.393C362.546 759.674 365.114 762.238 365.114 765.395V808.303C365.114 809.885 366.393 811.164 367.974 811.164 369.555 811.164 370.835 809.885 370.835 808.303V765.395C370.835 759.087 365.704 753.953 359.393 753.953H290.739C284.428 753.953 279.297 759.087 279.297 765.395V808.303C279.297 809.877 280.577 811.164 282.157 811.164Z" fill="#ffffff"/></g><g fill="#000000"><path d="M168.944 934.273V967H164.981V934.273H168.944ZM180.15 952.234V967H176.379V942.455H180.022V946.29H180.342C180.917 945.043 181.791 944.042 182.963 943.286 184.135 942.518 185.647 942.135 187.501 942.135 189.163 942.135 190.617 942.476 191.864 943.158 193.11 943.829 194.08 944.852 194.772 946.226 195.465 947.589 195.811 949.315 195.811 951.403V967H192.039V951.659C192.039 949.731 191.539 948.229 190.537 947.153 189.536 946.066 188.162 945.523 186.414 945.523 185.211 945.523 184.135 945.784 183.186 946.306 182.249 946.828 181.509 947.589 180.965 948.591 180.422 949.592 180.15 950.807 180.15 952.234ZM213.633 942.455V945.651H200.401V942.455H213.633ZM204.364 967V939.067C204.364 937.661 204.694 936.489 205.355 935.551 206.015 934.614 206.873 933.911 207.928 933.442 208.982 932.973 210.096 932.739 211.268 932.739 212.194 932.739 212.951 932.813 213.537 932.962 214.123 933.112 214.559 933.25 214.847 933.378L213.76 936.638C213.569 936.574 213.302 936.494 212.961 936.398 212.631 936.302 212.194 936.254 211.651 936.254 210.405 936.254 209.504 936.569 208.95 937.197 208.407 937.826 208.135 938.747 208.135 939.962V967H204.364ZM228.198 967.511C225.833 967.511 223.793 966.989 222.078 965.945 220.374 964.891 219.058 963.42 218.131 961.535 217.215 959.638 216.757 957.433 216.757 954.919 216.757 952.405 217.215 950.189 218.131 948.271 219.058 946.343 220.347 944.841 221.998 943.765 223.66 942.678 225.599 942.135 227.815 942.135 229.093 942.135 230.356 942.348 231.602 942.774 232.849 943.2 233.983 943.893 235.006 944.852 236.029 945.8 236.844 947.057 237.451 948.623 238.058 950.189 238.362 952.117 238.362 954.408V956.006H219.441V952.746H234.527C234.527 951.361 234.25 950.125 233.696 949.038 233.152 947.952 232.375 947.094 231.363 946.466 230.361 945.837 229.179 945.523 227.815 945.523 226.313 945.523 225.013 945.896 223.916 946.641 222.829 947.376 221.993 948.335 221.407 949.518 220.821 950.7 220.528 951.968 220.528 953.321V955.494C220.528 957.348 220.848 958.919 221.487 960.208 222.137 961.487 223.037 962.462 224.187 963.133 225.338 963.793 226.675 964.124 228.198 964.124 229.189 964.124 230.084 963.985 230.883 963.708 231.693 963.42 232.391 962.994 232.977 962.43 233.562 961.854 234.015 961.141 234.335 960.288L237.978 961.311C237.595 962.547 236.95 963.634 236.045 964.571 235.139 965.498 234.021 966.222 232.689 966.744 231.357 967.256 229.86 967.511 228.198 967.511ZM254.07 967.511C251.769 967.511 249.788 966.968 248.126 965.881 246.464 964.795 245.185 963.298 244.29 961.391 243.396 959.484 242.948 957.305 242.948 954.855 242.948 952.362 243.406 950.162 244.322 948.255 245.249 946.338 246.538 944.841 248.19 943.765 249.852 942.678 251.79 942.135 254.006 942.135 255.732 942.135 257.288 942.455 258.673 943.094 260.057 943.733 261.192 944.628 262.076 945.778 262.961 946.929 263.509 948.271 263.722 949.805H259.951C259.663 948.687 259.024 947.696 258.033 946.833 257.053 945.96 255.732 945.523 254.07 945.523 252.6 945.523 251.311 945.906 250.203 946.673 249.106 947.43 248.248 948.5 247.63 949.885 247.023 951.26 246.719 952.874 246.719 954.727 246.719 956.624 247.018 958.275 247.614 959.681 248.222 961.087 249.074 962.179 250.171 962.957 251.279 963.735 252.579 964.124 254.07 964.124 255.05 964.124 255.94 963.953 256.739 963.612 257.538 963.271 258.214 962.781 258.768 962.142 259.322 961.503 259.717 960.736 259.951 959.841H263.722C263.509 961.29 262.982 962.595 262.14 963.756 261.309 964.907 260.207 965.823 258.832 966.505 257.469 967.176 255.881 967.511 254.07 967.511ZM279.91 942.455V945.651H267.19V942.455H279.91ZM270.897 936.574H274.669V959.969C274.669 961.034 274.823 961.833 275.132 962.366 275.452 962.888 275.856 963.239 276.347 963.42 276.847 963.591 277.375 963.676 277.929 963.676 278.344 963.676 278.685 963.655 278.951 963.612 279.218 963.559 279.431 963.516 279.591 963.484L280.358 966.872C280.102 966.968 279.745 967.064 279.287 967.16 278.829 967.266 278.248 967.32 277.545 967.32 276.48 967.32 275.436 967.091 274.413 966.632 273.401 966.174 272.559 965.477 271.888 964.539 271.228 963.602 270.897 962.419 270.897 960.991V936.574ZM295.611 967.511C293.246 967.511 291.205 966.989 289.49 965.945 287.786 964.891 286.47 963.42 285.543 961.535 284.627 959.638 284.169 957.433 284.169 954.919 284.169 952.405 284.627 950.189 285.543 948.271 286.47 946.343 287.759 944.841 289.41 943.765 291.072 942.678 293.011 942.135 295.227 942.135 296.505 942.135 297.768 942.348 299.014 942.774 300.261 943.2 301.395 943.893 302.418 944.852 303.441 945.8 304.256 947.057 304.863 948.623 305.47 950.189 305.774 952.117 305.774 954.408V956.006H286.853V952.746H301.939C301.939 951.361 301.662 950.125 301.108 949.038 300.564 947.952 299.787 947.094 298.775 946.466 297.773 945.837 296.591 945.523 295.227 945.523 293.725 945.523 292.425 945.896 291.328 946.641 290.241 947.376 289.405 948.335 288.819 949.518 288.233 950.7 287.94 951.968 287.94 953.321V955.494C287.94 957.348 288.26 958.919 288.899 960.208 289.549 961.487 290.449 962.462 291.6 963.133 292.75 963.793 294.087 964.124 295.611 964.124 296.601 964.124 297.496 963.985 298.295 963.708 299.105 963.42 299.803 962.994 300.389 962.43 300.975 961.854 301.427 961.141 301.747 960.288L305.39 961.311C305.007 962.547 304.362 963.634 303.457 964.571 302.551 965.498 301.433 966.222 300.101 966.744 298.769 967.256 297.273 967.511 295.611 967.511ZM320.779 967.511C318.734 967.511 316.928 966.995 315.362 965.961 313.796 964.917 312.571 963.447 311.687 961.551 310.802 959.644 310.36 957.391 310.36 954.791 310.36 952.213 310.802 949.976 311.687 948.08 312.571 946.183 313.801 944.718 315.378 943.685 316.955 942.652 318.776 942.135 320.843 942.135 322.441 942.135 323.704 942.401 324.63 942.934 325.568 943.456 326.282 944.053 326.772 944.724 327.273 945.384 327.661 945.928 327.938 946.354H328.258V934.273H332.029V967H328.386V963.229H327.938C327.661 963.676 327.267 964.241 326.756 964.923 326.244 965.594 325.515 966.196 324.567 966.728 323.618 967.25 322.356 967.511 320.779 967.511ZM321.291 964.124C322.803 964.124 324.082 963.729 325.126 962.941 326.17 962.142 326.964 961.039 327.507 959.633 328.05 958.216 328.322 956.581 328.322 954.727 328.322 952.895 328.056 951.292 327.523 949.917 326.99 948.532 326.202 947.456 325.158 946.689 324.114 945.912 322.825 945.523 321.291 945.523 319.693 945.523 318.361 945.933 317.296 946.753 316.241 947.563 315.447 948.665 314.915 950.061 314.393 951.446 314.132 953.001 314.132 954.727 314.132 956.474 314.398 958.062 314.931 959.489 315.474 960.906 316.273 962.036 317.328 962.877 318.393 963.708 319.714 964.124 321.291 964.124ZM361.385 967.511C359.339 967.511 357.534 966.995 355.967 965.961 354.401 964.917 353.176 963.447 352.292 961.551 351.408 959.644 350.966 957.391 350.966 954.791 350.966 952.213 351.408 949.976 352.292 948.08 353.176 946.183 354.407 944.718 355.983 943.685 357.56 942.652 359.382 942.135 361.449 942.135 363.047 942.135 364.309 942.401 365.236 942.934 366.173 943.456 366.887 944.053 367.377 944.724 367.878 945.384 368.267 945.928 368.544 946.354H368.863V934.273H372.635V967H368.991V963.229H368.544C368.267 963.676 367.873 964.241 367.361 964.923 366.85 965.594 366.12 966.196 365.172 966.728 364.224 967.25 362.961 967.511 361.385 967.511ZM361.896 964.124C363.409 964.124 364.687 963.729 365.731 962.941 366.775 962.142 367.569 961.039 368.112 959.633 368.656 958.216 368.927 956.581 368.927 954.727 368.927 952.895 368.661 951.292 368.128 949.917 367.596 948.532 366.807 947.456 365.763 946.689 364.719 945.912 363.43 945.523 361.896 945.523 360.298 945.523 358.966 945.933 357.901 946.753 356.846 947.563 356.053 948.665 355.52 950.061 354.998 951.446 354.737 953.001 354.737 954.727 354.737 956.474 355.003 958.062 355.536 959.489 356.079 960.906 356.878 962.036 357.933 962.877 358.998 963.708 360.319 964.124 361.896 964.124ZM390.357 967.511C387.992 967.511 385.951 966.989 384.236 965.945 382.532 964.891 381.216 963.42 380.289 961.535 379.373 959.638 378.915 957.433 378.915 954.919 378.915 952.405 379.373 950.189 380.289 948.271 381.216 946.343 382.505 944.841 384.156 943.765 385.818 942.678 387.757 942.135 389.973 942.135 391.252 942.135 392.514 942.348 393.76 942.774 395.007 943.2 396.141 943.893 397.164 944.852 398.187 945.8 399.002 947.057 399.609 948.623 400.216 950.189 400.52 952.117 400.52 954.408V956.006H381.6V952.746H396.685C396.685 951.361 396.408 950.125 395.854 949.038 395.311 947.952 394.533 947.094 393.521 946.466 392.519 945.837 391.337 945.523 389.973 945.523 388.471 945.523 387.171 945.896 386.074 946.641 384.987 947.376 384.151 948.335 383.565 949.518 382.979 950.7 382.686 951.968 382.686 953.321V955.494C382.686 957.348 383.006 958.919 383.645 960.208 384.295 961.487 385.195 962.462 386.346 963.133 387.496 963.793 388.833 964.124 390.357 964.124 391.347 964.124 392.242 963.985 393.041 963.708 393.851 963.42 394.549 962.994 395.135 962.43 395.721 961.854 396.173 961.141 396.493 960.288L400.136 961.311C399.753 962.547 399.108 963.634 398.203 964.571 397.297 965.498 396.179 966.222 394.847 966.744 393.515 967.256 392.019 967.511 390.357 967.511ZM425.581 942.455 416.504 967H412.669L403.592 942.455H407.683L414.459 962.014H414.714L421.49 942.455H425.581ZM430.559 967V942.455H434.33V967H430.559ZM432.476 938.364C431.741 938.364 431.107 938.113 430.575 937.613 430.053 937.112 429.792 936.51 429.792 935.807 429.792 935.104 430.053 934.502 430.575 934.001 431.107 933.5 431.741 933.25 432.476 933.25 433.211 933.25 433.84 933.5 434.362 934.001 434.895 934.502 435.161 935.104 435.161 935.807 435.161 936.51 434.895 937.112 434.362 937.613 433.84 938.113 433.211 938.364 432.476 938.364ZM451.209 967.511C448.908 967.511 446.926 966.968 445.264 965.881 443.602 964.795 442.324 963.298 441.429 961.391 440.534 959.484 440.087 957.305 440.087 954.855 440.087 952.362 440.545 950.162 441.461 948.255 442.388 946.338 443.677 944.841 445.328 943.765 446.99 942.678 448.929 942.135 451.145 942.135 452.871 942.135 454.426 942.455 455.811 943.094 457.196 943.733 458.331 944.628 459.215 945.778 460.099 946.929 460.648 948.271 460.861 949.805H457.09C456.802 948.687 456.163 947.696 455.172 946.833 454.192 945.96 452.871 945.523 451.209 945.523 449.739 945.523 448.45 945.906 447.342 946.673 446.244 947.43 445.387 948.5 444.769 949.885 444.162 951.26 443.858 952.874 443.858 954.727 443.858 956.624 444.156 958.275 444.753 959.681 445.36 961.087 446.212 962.179 447.31 962.957 448.418 963.735 449.717 964.124 451.209 964.124 452.189 964.124 453.079 963.953 453.878 963.612 454.677 963.271 455.353 962.781 455.907 962.142 456.461 961.503 456.855 960.736 457.09 959.841H460.861C460.648 961.29 460.121 962.595 459.279 963.756 458.448 964.907 457.345 965.823 455.971 966.505 454.607 967.176 453.02 967.511 451.209 967.511ZM476.665 967.511C474.3 967.511 472.26 966.989 470.545 965.945 468.84 964.891 467.525 963.42 466.598 961.535 465.682 959.638 465.223 957.433 465.223 954.919 465.223 952.405 465.682 950.189 466.598 948.271 467.525 946.343 468.814 944.841 470.465 943.765 472.127 942.678 474.066 942.135 476.282 942.135 477.56 942.135 478.823 942.348 480.069 942.774 481.315 943.2 482.45 943.893 483.473 944.852 484.496 945.8 485.311 947.057 485.918 948.623 486.525 950.189 486.829 952.117 486.829 954.408V956.006H467.908V952.746H482.993C482.993 951.361 482.716 950.125 482.162 949.038 481.619 947.952 480.841 947.094 479.829 946.466 478.828 945.837 477.645 945.523 476.282 945.523 474.78 945.523 473.48 945.896 472.383 946.641 471.296 947.376 470.46 948.335 469.874 949.518 469.288 950.7 468.995 951.968 468.995 953.321V955.494C468.995 957.348 469.314 958.919 469.954 960.208 470.603 961.487 471.504 962.462 472.654 963.133 473.805 963.793 475.142 964.124 476.665 964.124 477.656 964.124 478.551 963.985 479.35 963.708 480.16 963.42 480.857 962.994 481.443 962.43 482.029 961.854 482.482 961.141 482.802 960.288L486.445 961.311C486.062 962.547 485.417 963.634 484.511 964.571 483.606 965.498 482.487 966.222 481.156 966.744 479.824 967.256 478.327 967.511 476.665 967.511Z"/><path d="M693.691 347 683.691 341.227V352.774L693.691 347ZM466.257 348H684.691V346H466.257V348Z"/><path d="M466.257 793.92 476.257 788.147V799.694L466.257 793.92ZM693.691 794.92H475.257V792.92H693.691V794.92Z"/><path d="M994.931 794.588 1004.93 800.361V788.814L994.931 794.588ZM994.931 347.448H1032.08V345.448H994.931V347.448ZM1060.08 375.448V765.588H1062.08V375.448H1060.08ZM1032.08 793.588H1003.93V795.588H1032.08V793.588ZM1060.08 765.588C1060.08 781.052 1047.55 793.588 1032.08 793.588V795.588C1048.65 795.588 1062.08 782.156 1062.08 765.588H1060.08ZM1032.08 347.448C1047.55 347.448 1060.08 359.984 1060.08 375.448H1062.08C1062.08 358.88 1048.65 345.448 1032.08 345.448V347.448Z"/></g><g clip-path="url(#clip1_134_1281)"><g fill="#000000"><path d="M775.837 1094.18C775.837 1093.04 776.307 1091.9 777.114 1091.09 777.92 1090.29 779.062 1089.82 780.204 1089.82 781.347 1089.82 782.489 1090.29 783.295 1091.09 784.101 1091.9 784.572 1093.04 784.572 1094.18 784.572 1094.78 784.437 1095.32 784.236 1095.86 784.034 1096.39 783.698 1096.86 783.295 1097.27 782.892 1097.67 782.422 1098 781.884 1098.21 781.347 1098.41 780.809 1098.54 780.204 1098.54 779.6 1098.54 779.062 1098.41 778.525 1098.21 777.987 1098 777.517 1097.67 777.114 1097.27 776.711 1096.86 776.375 1096.39 776.173 1095.86 775.904 1095.32 775.837 1094.72 775.837 1094.18ZM776.643 1094.18C776.643 1094.65 776.711 1095.12 776.912 1095.52 777.114 1095.92 777.315 1096.33 777.651 1096.66 777.987 1097 778.39 1097.27 778.793 1097.47 779.197 1097.67 779.667 1097.74 780.137 1097.74 781.078 1097.74 782.019 1097.33 782.623 1096.66 783.295 1095.99 783.631 1095.12 783.631 1094.11 783.631 1093.17 783.228 1092.23 782.623 1091.56 781.951 1090.89 781.078 1090.49 780.137 1090.49 779.667 1090.49 779.197 1090.55 778.793 1090.76 778.39 1090.96 777.987 1091.23 777.651 1091.56 777.315 1091.9 777.046 1092.3 776.912 1092.7 776.711 1093.24 776.643 1093.71 776.643 1094.18ZM779.532 1096.66H778.525V1091.7H780.473C781.481 1091.7 782.287 1092.23 782.287 1093.24 782.287 1093.57 782.22 1093.84 782.019 1094.11 781.817 1094.38 781.615 1094.58 781.279 1094.65L782.287 1096.66H781.145L780.204 1094.85H779.465V1096.66H779.532ZM780.406 1092.63H779.532V1093.84H780.406C780.809 1093.84 781.212 1093.71 781.212 1093.24 781.212 1092.77 780.809 1092.63 780.406 1092.63Z"/><path clip-rule="evenodd" d="M570.974 1128.61 553.101 1101.83V1128.61H545.173V1089.82H554.378L571.243 1115.19V1089.82H579.171V1128.61H570.974Z" fill-rule="evenodd"/><path clip-rule="evenodd" d="M597.38 1101.56C589.317 1101.56 582.866 1107.53 582.866 1115.45 582.866 1123.44 589.25 1129.21 597.312 1129.21 605.375 1129.21 611.825 1123.24 611.825 1115.25 611.758 1107.4 605.308 1101.56 597.38 1101.56ZM597.312 1122.1C593.684 1122.1 590.728 1119.35 590.728 1115.32 590.728 1111.29 593.617 1108.61 597.245 1108.61 600.873 1108.61 603.83 1111.36 603.83 1115.32 603.83 1119.28 600.941 1122.1 597.312 1122.1Z" fill-rule="evenodd"/><path clip-rule="evenodd" d="M631.78 1102.1V1109.68C630.973 1109.55 630.1 1109.48 629.293 1109.48 625.598 1109.48 622.978 1112.03 622.978 1117V1128.61H615.385V1102.17H622.709V1106.06H622.776C624.187 1103.04 626.875 1101.9 629.629 1101.9 630.436 1101.83 631.108 1101.96 631.78 1102.1Z" fill-rule="evenodd"/><path clip-rule="evenodd" d="M653.954 1089.75V1105.12H653.887C651.132 1101.9 647.503 1101.63 645.958 1101.63 638.366 1101.63 633.259 1108.61 633.259 1115.32 633.259 1122.43 638.164 1129.08 645.891 1129.08 647.705 1129.08 651.669 1128.81 654.155 1125.19H654.222V1128.54H661.748V1089.75H653.954V1089.75ZM647.638 1122.1C644.01 1122.1 641.053 1119.35 641.053 1115.32 641.053 1111.29 644.01 1108.61 647.638 1108.61 651.266 1108.61 654.222 1111.36 654.222 1115.32 654.155 1119.28 651.199 1122.1 647.638 1122.1Z" fill-rule="evenodd"/><path clip-rule="evenodd" d="M678.141 1128.61 664.098 1089.82H672.766L682.844 1119.35 692.99 1089.82H701.523L687.413 1128.61H678.141Z" fill-rule="evenodd"/><path clip-rule="evenodd" d="M719.263 1089.75H704.817V1128.61H712.88V1114.92H718.994C727.124 1114.92 733.171 1110.82 733.171 1102.23 733.104 1093.98 727.057 1089.75 719.263 1089.75ZM718.591 1107.4H712.812V1097.33H718.524C721.883 1097.33 725.041 1098.61 725.041 1102.37 725.041 1106.06 721.749 1107.4 718.591 1107.4Z" fill-rule="evenodd"/><path clip-rule="evenodd" d="M763.003 1128.61 745.131 1101.83V1128.61H737.202V1089.82H746.407L763.272 1115.19V1089.82H771.2V1128.61H763.003Z" fill-rule="evenodd"/></g><path clip-rule="evenodd" d="M425.036 1147.06C418.788 1138.47 415.428 1128.07 415.428 1117.47 415.428 1089.62 438.004 1067.06 465.821 1067.06 493.638 1067.06 516.213 1089.62 516.213 1117.47 516.213 1128.07 512.854 1138.47 506.605 1147.06L482.417 1107.74 480.065 1111.7 482.417 1122.7 465.821 1094.25 455.541 1111.63 457.96 1122.7 449.225 1107.8 425.036 1147.06Z" fill="#3e5fff" fill-rule="evenodd"/></g></svg>